<svg width="24" height="24" viewBox="0 0 24 24" fill="none" xmlns="http://www.w3.org/2000/svg">
<path d="M6.4091 20.4464H16.075C18.6206 20.4464 19.6352 18.8877 19.7551 16.9877L20.2347 9.36935C20.3638 7.37714 18.7774 5.68929 16.776 5.68929C16.2134 5.68929 15.6969 5.36648 15.4386 4.86842L14.7746 3.53105C14.3503 2.69174 13.2435 2 12.3027 2H10.1906C9.24063 2 8.13384 2.69174 7.70957 3.53105L7.0455 4.86842C6.78725 5.36648 6.27075 5.68929 5.70813 5.68929C3.70669 5.68929 2.1203 7.37714 2.24943 9.36935L2.72903 16.9877C2.83971 18.8877 3.86349 20.4464 6.4091 20.4464Z" stroke="#95A2A6" stroke-width="1.5" stroke-linecap="round" stroke-linejoin="round"/>
<path d="M9.85852 7.53394H12.6255" stroke="#95A2A6" stroke-width="1.5" stroke-linecap="round" stroke-linejoin="round"/>
<path d="M11.2421 16.7572C12.893 16.7572 14.2396 15.4106 14.2396 13.7596C14.2396 12.1087 12.893 10.7621 11.2421 10.7621C9.5911 10.7621 8.24451 12.1087 8.24451 13.7596C8.24451 15.4106 9.5911 16.7572 11.2421 16.7572Z" stroke="#95A2A6" stroke-width="1.5" stroke-linecap="round" stroke-linejoin="round"/>
</svg>
