<svg width="192" height="165" viewBox="0 0 192 165" fill="none" xmlns="http://www.w3.org/2000/svg">
<path d="M174.789 0H159.908V34.4205H174.789C184.294 34.4205 191.999 26.7152 191.999 17.2103C191.999 7.7053 184.294 0 174.789 0Z" fill="#B0E4DF"/>
<path d="M44.1648 0H172.964C165.806 0.937779 160.454 7.03733 160.454 14.2559V145.731C160.454 156.373 151.827 165 141.185 165H121.292V134.95H20.125V24.0397C20.125 10.763 30.888 0 44.1648 0Z" fill="#E6F6F5"/>
<path d="M0 134.404H121.743V141.174C121.743 153.186 130.605 163.356 142.504 165H29.5033C13.2091 165 0 151.791 0 135.497V134.404Z" fill="#B0E4DF"/>
<rect x="38.0723" y="52.4503" width="106.606" height="6.55629" rx="3.27815" fill="#B0E4DF"/>
<rect x="78.3223" y="68.8408" width="66.3569" height="6.55629" rx="3.27815" fill="#B0E4DF"/>
<rect x="78.3223" y="85.2318" width="66.3569" height="6.55629" rx="3.27815" fill="#B0E4DF"/>
<rect x="38.0723" y="101.623" width="106.606" height="6.55629" rx="3.27815" fill="#B0E4DF"/>
<rect x="38.0723" y="118.013" width="106.606" height="6.55629" rx="3.27815" fill="#B0E4DF"/>
<path d="M59.122 38.8419C58.3179 38.8419 57.7042 38.6198 57.281 38.1754C56.8578 37.731 56.6462 37.1068 56.6462 36.3027V18.6865C56.6462 17.8613 56.8578 17.2371 57.281 16.8138C57.7254 16.3906 58.3496 16.179 59.1537 16.179H66.8667C69.3636 16.179 71.2893 16.8138 72.6435 18.0835C73.9978 19.3319 74.6749 21.0777 74.6749 23.3207C74.6749 25.5637 73.9978 27.32 72.6435 28.5897C71.2893 29.8593 69.3636 30.4941 66.8667 30.4941H61.566V36.3027C61.566 37.1068 61.3544 37.731 60.9312 38.1754C60.5291 38.6198 59.9261 38.8419 59.122 38.8419ZM61.566 26.6852H66.0414C67.3111 26.6852 68.2739 26.3996 68.9299 25.8282C69.607 25.2569 69.9456 24.421 69.9456 23.3207C69.9456 22.2204 69.607 21.3951 68.9299 20.8449C68.2739 20.2947 67.3111 20.0197 66.0414 20.0197H61.566V26.6852ZM84.6659 38.5563C83.8406 38.5563 83.2058 38.3341 82.7615 37.8897C82.3171 37.4453 82.0949 36.8105 82.0949 35.9853V18.75C82.0949 17.9248 82.3171 17.29 82.7615 16.8456C83.2058 16.4012 83.8406 16.179 84.6659 16.179H90.8553C94.6854 16.179 97.6373 17.1524 99.711 19.0992C101.806 21.0248 102.853 23.7757 102.853 27.3518C102.853 29.1504 102.578 30.748 102.028 32.1446C101.499 33.5201 100.727 34.6839 99.711 35.6361C98.6953 36.5883 97.4468 37.3184 95.9656 37.8262C94.4844 38.3129 92.781 38.5563 90.8553 38.5563H84.6659ZM87.0147 34.5252H90.5697C91.7758 34.5252 92.8233 34.3771 93.712 34.0808C94.6008 33.7846 95.3414 33.3402 95.9339 32.7477C96.5264 32.1552 96.9707 31.4146 97.267 30.5259C97.5632 29.616 97.7114 28.5579 97.7114 27.3518C97.7114 24.9395 97.1083 23.1514 95.9021 21.9876C94.7171 20.8026 92.9397 20.2101 90.5697 20.2101H87.0147V34.5252ZM113.554 38.8419C112.75 38.8419 112.125 38.6198 111.681 38.1754C111.258 37.731 111.046 37.0856 111.046 36.2392V18.75C111.046 17.9248 111.268 17.29 111.713 16.8456C112.157 16.4012 112.792 16.179 113.617 16.179H124.473C125.107 16.179 125.584 16.3483 125.901 16.6869C126.24 17.0043 126.409 17.4698 126.409 18.0835C126.409 18.7183 126.24 19.205 125.901 19.5435C125.584 19.861 125.107 20.0197 124.473 20.0197H115.966V25.4791H123.774C124.409 25.4791 124.896 25.6484 125.234 25.9869C125.573 26.3043 125.742 26.7699 125.742 27.3835C125.742 27.9972 125.573 28.4733 125.234 28.8119C124.896 29.1504 124.409 29.3197 123.774 29.3197H115.966V36.2392C115.966 37.9744 115.162 38.8419 113.554 38.8419Z" fill="#00A991"/>
<path d="M50.1444 89.5012C49.8905 89.9244 49.5837 90.1995 49.2239 90.3264C48.8642 90.4746 48.5045 90.5063 48.1447 90.4217C47.785 90.337 47.4782 90.1677 47.2243 89.9138C46.9915 89.6387 46.8434 89.3107 46.7799 88.9299C46.7164 88.549 46.8116 88.1469 47.0656 87.7237L58.4605 67.9809C58.7144 67.5366 59.0213 67.2403 59.381 67.0922C59.7407 66.9441 60.0899 66.9229 60.4284 67.0287C60.7882 67.1134 61.095 67.2932 61.3489 67.5683C61.6028 67.8222 61.7615 68.1396 61.825 68.5205C61.8885 68.9014 61.7933 69.3035 61.5394 69.7267L50.1444 89.5012ZM46.1451 80.8677C44.3041 80.8677 42.8758 80.254 41.8601 79.0267C40.8444 77.7783 40.3365 76.1066 40.3365 74.0117C40.3365 72.5939 40.5587 71.3772 41.0031 70.3615C41.4686 69.3458 42.1352 68.5629 43.0027 68.0127C43.8915 67.4625 44.9389 67.1874 46.1451 67.1874C47.9649 67.1874 49.3826 67.8117 50.3983 69.0601C51.4352 70.2874 51.9536 71.938 51.9536 74.0117C51.9536 75.4083 51.7209 76.625 51.2553 77.6619C50.811 78.6776 50.155 79.4711 49.2874 80.0424C48.4198 80.5926 47.3724 80.8677 46.1451 80.8677ZM46.1451 77.8206C46.5683 77.8206 46.9174 77.6936 47.1925 77.4397C47.4888 77.1646 47.711 76.752 47.8591 76.2018C48.0284 75.6305 48.113 74.9004 48.113 74.0117C48.113 72.6786 47.9331 71.7264 47.5734 71.155C47.2348 70.5625 46.7587 70.2663 46.1451 70.2663C45.7219 70.2663 45.3621 70.3932 45.0659 70.6472C44.7696 70.9011 44.5475 71.3031 44.3993 71.8533C44.2512 72.3823 44.1772 73.1018 44.1772 74.0117C44.1772 75.366 44.3464 76.3393 44.685 76.9318C45.0236 77.5243 45.5103 77.8206 46.1451 77.8206ZM62.4916 90.263C60.6506 90.263 59.2223 89.6387 58.2066 88.3903C57.1909 87.1418 56.683 85.4701 56.683 83.3752C56.683 81.9786 56.9158 80.7725 57.3813 79.7568C57.8468 78.7411 58.5134 77.9581 59.381 77.408C60.2486 76.8578 61.2854 76.5827 62.4916 76.5827C64.3114 76.5827 65.7291 77.1963 66.7448 78.4237C67.7817 79.651 68.3001 81.3015 68.3001 83.3752C68.3001 84.7718 68.0674 85.9885 67.6018 87.0254C67.1575 88.0623 66.5015 88.8664 65.6339 89.4377C64.7663 89.9879 63.7189 90.263 62.4916 90.263ZM62.4916 87.1841C62.9148 87.1841 63.2639 87.0571 63.539 86.8032C63.8353 86.5493 64.0575 86.1367 64.2056 85.5653C64.3749 84.994 64.4595 84.264 64.4595 83.3752C64.4595 82.0421 64.2796 81.0899 63.9199 80.5185C63.5813 79.9261 63.1052 79.6298 62.4916 79.6298C62.0684 79.6298 61.7086 79.7568 61.4124 80.0107C61.1373 80.2646 60.9151 80.6667 60.7458 81.2168C60.5977 81.767 60.5237 82.4865 60.5237 83.3752C60.5237 84.7507 60.6929 85.7346 61.0315 86.3271C61.3701 86.8984 61.8568 87.1841 62.4916 87.1841Z" fill="#00A991"/>
</svg>
