<svg width="24" height="24" viewBox="0 0 24 24" fill="none" xmlns="http://www.w3.org/2000/svg">
<g clip-path="url(#clip0_46_6790)">
<path d="M5.5 9.667C5.5 8.95967 5.8412 8.28131 6.44853 7.78115C7.05587 7.28099 7.8796 7 8.7385 7H19.2615C19.6868 7 20.1079 7.06898 20.5008 7.20301C20.8937 7.33704 21.2507 7.53349 21.5515 7.78115C21.8522 8.0288 22.0907 8.32281 22.2535 8.64638C22.4162 8.96996 22.5 9.31676 22.5 9.667V18.333C22.5 18.6832 22.4162 19.03 22.2535 19.3536C22.0907 19.6772 21.8522 19.9712 21.5515 20.2189C21.2507 20.4665 20.8937 20.663 20.5008 20.797C20.1079 20.931 19.6868 21 19.2615 21H8.7385C8.31321 21 7.89209 20.931 7.49918 20.797C7.10627 20.663 6.74926 20.4665 6.44853 20.2189C6.14781 19.9712 5.90927 19.6772 5.74652 19.3536C5.58377 19.03 5.5 18.6832 5.5 18.333V9.667Z" stroke="#95A2A6" stroke-width="1.5" stroke-linecap="round" stroke-linejoin="round"/>
<path d="M2.66377 16.737C2.31113 16.5622 2.01781 16.3095 1.81347 16.0045C1.60912 15.6995 1.501 15.353 1.50002 15L1.5 7.4729C1.5 4.23766 3.13065 3 5.44923 3H15.2995C16.162 3 16.6311 3.385 17.0244 4" stroke="#95A2A6" stroke-width="1.5" stroke-linecap="round" stroke-linejoin="round"/>
</g>
<defs>
<clipPath id="clip0_46_6790">
<rect width="24" height="24" fill="white"/>
</clipPath>
</defs>
</svg>
